PathFileType	3	(X/Y/Z)	C:\Users\koon_\Desktop\
DataRate	CameraRate	NumFrames	NumMarkers	Units	OrigDataRate	OrigDataStartFrame	OrigNumFrames
100.0	100.0	9	27	mm	100.0	2069	3309	
Frame#	Time	get:LFHD			get:RFHD			get:LBHD			get:RBHD			get:C7			get:T10			get:CLAV			get:STRN			get:RBAK			get:LSHO			get:LUPA			get:LELB			get:LFRA			get:LWRA			get:LWRB			get:LFIN			get:RSHO			get:RUPA			get:RELB			get:RFRA			get:RWRA			get:RWRB			get:RFIN			get:LASI			get:RASI			get:LPSI			get:RPSI			
		X1	Y1	Z1	X2	Y2	Z2	X3	Y3	Z3	X4	Y4	Z4	X5	Y5	Z5	X6	Y6	Z6	X7	Y7	Z7	X8	Y8	Z8	X9	Y9	Z9	X10	Y10	Z10	X11	Y11	Z11	X12	Y12	Z12	X13	Y13	Z13	X14	Y14	Z14	X15	Y15	Z15	X16	Y16	Z16	X17	Y17	Z17	X18	Y18	Z18	X19	Y19	Z19	X20	Y20	Z20	X21	Y21	Z21	X22	Y22	Z22	X23	Y23	Z23	X24	Y24	Z24	X25	Y25	Z25	X26	Y26	Z26	X27	Y27	Z27	
2069	20.68	80.568871	1562.3539	1.0466859	-57.8293	1553.2307	-27.635151	89.988937	1557.2786	-160.94727	-34.953602	1524.7292	-191.11432	61.042068	1336.6846	-184.44778	54.145363	1131.806	-223.49892	-14.100958	1263.3694	1.3723621	-22.344858	1070.915	38.706467	-23.42923	1264.5388	-236.7847	134.45993	1337.0288	-54.580345	180.19069	1291.6324	55.886848	146.04976	1237.7498	226.78854	127.76543	1369.8174	208.20493	113.68469	1437.0713	175.12881	53.798222	1444.8461	233.33969	95.985779	1531.1658	197.56821	-91.324051	1338.4998	-136.02327	-190.26555	1198.6855	-20.711449	-220.77878	1095.066	34.995918	-205.17252	1187.2159	15.670706	-141.30798	1300.9514	20.448498	-91.109222	1281.6202	81.567657	-96.175972	1384.061	54.20372	110.46159	887.06281	20.941368	-150.91611	880.60413	-32.248119	60.249866	950.19653	-209.36418	-27.757854	949.48468	-229.63553
2070	20.69	80.259079	1562.6086	0.80660999	-58.07222	1553.432	-28.238195	90.08564	1557.2754	-161.19649	-34.805027	1524.6244	-191.61591	60.937912	1336.8788	-184.45927	53.908459	1132.0862	-223.85501	-13.826606	1263.3577	1.4591439	-21.847881	1070.8479	38.311939	-23.644363	1264.764	-236.67874	134.72107	1337.1444	-54.681774	180.5313	1290.8586	55.818169	146.0598	1235.5896	226.24504	127.82888	1367.7798	208.37604	113.74197	1434.9762	175.6098	53.832256	1442.6624	233.75864	95.986214	1529.2051	198.62486	-91.325371	1338.5905	-135.78252	-190.35944	1198.5624	-20.632723	-221.12752	1094.8889	35.515388	-205.23848	1187.0498	15.855269	-141.26231	1300.7606	21.078825	-91.113831	1281.0322	82.223999	-96.078651	1383.6122	55.368633	111.23529	887.16467	20.120674	-150.34636	880.58264	-32.083637	60.198204	950.32495	-209.92049	-27.934448	949.60596	-229.8752
2071	20.7	79.92569	1562.8463	0.51674914	-58.316463	1553.6611	-28.731762	90.083145	1557.2117	-161.40396	-34.696358	1524.5889	-192.14302	60.883774	1337.1108	-184.57173	53.797405	1132.3556	-224.10541	-13.58663	1263.3618	1.5090449	-21.358765	1070.8057	38.01226	-23.788969	1265.0021	-236.74501	134.89638	1337.3104	-54.744076	180.75911	1290.1742	55.769703	146.09361	1233.5281	225.82352	127.83094	1365.7854	208.53687	114.17398	1433.4124	176.02907	53.713596	1440.4689	234.23021	95.926666	1527.2335	199.66183	-91.337601	1338.624	-135.51715	-190.52505	1198.2521	-20.737696	-221.60376	1094.4827	35.083885	-205.45721	1186.7559	15.800629	-141.1358	1300.2944	21.867392	-91.227417	1280.2235	82.940346	-95.996132	1382.865	56.787983	111.77119	887.2323	19.466578	-149.91908	880.62323	-32.310955	60.274872	950.40521	-210.35258	-27.871973	949.75989	-230.32454
2072	20.71	79.65461	1563.0313	0.25798595	-58.525475	1553.8429	-29.148354	90.122101	1557.124	-161.58626	-34.659138	1524.5258	-192.4108	60.764469	1337.293	-184.61601	53.79425	1132.5964	-224.35095	-13.472636	1263.3224	1.5351099	-20.955652	1070.7164	37.622215	-23.899532	1265.1796	-236.77644	134.99968	1337.4824	-54.791683	180.88124	1289.594	55.74543	146.08987	1231.4927	225.39311	127.7639	1363.8218	208.71066	114.02837	1431.7107	176.4644	53.56097	1438.3123	234.72209	95.745262	1525.3268	200.92245	-91.303253	1338.6714	-135.40065	-190.87871	1197.8359	-21.115753	-222.31969	1093.8376	34.177414	-205.98024	1186.1786	15.668491	-141.14827	1299.5907	22.675861	-91.542587	1279.0045	83.774422	-96.03199	1381.791	58.59066	112.09951	887.23822	19.050625	-149.66364	880.61896	-32.603268	60.548111	950.47595	-210.74823	-27.649244	949.81726	-230.63145
2073	20.72	79.421913	1563.2123	0.094264857	-58.795624	1554.0607	-29.592501	90.084953	1557.0481	-161.74612	-34.669884	1524.463	-192.76018	60.720966	1337.4994	-184.59973	53.940403	1132.8167	-224.59427	-13.367593	1263.2887	1.4695179	-20.664717	1070.6125	37.311188	-23.882334	1265.3604	-236.8091	135.05957	1337.6576	-54.844936	180.78137	1289.0851	55.747154	146.05443	1229.5458	224.98888	127.63258	1361.934	208.90549	113.40634	1429.7853	176.89275	53.327251	1436.1929	235.27997	95.491638	1523.4655	201.96602	-91.291092	1338.7362	-135.33957	-191.2995	1197.2325	-21.719458	-223.36684	1092.96	32.754383	-206.52211	1185.3854	15.120742	-141.24107	1298.6499	23.49523	-92.052559	1277.21	84.66378	-96.153053	1380.2897	60.610996	112.22442	887.2406	18.764898	-149.52235	880.66614	-33.188629	60.943848	950.49817	-211.03233	-27.21546	949.79681	-230.89619
2074	20.73	79.149628	1563.3999	-0.12130366	-59.013885	1554.2411	-29.931961	90.02697	1556.9465	-161.92847	-34.738583	1524.4127	-193.0782	60.651402	1337.7113	-184.61758	54.191364	1133.0334	-224.76797	-13.391809	1263.1877	1.3708429	-20.49197	1070.4657	36.892479	-23.806631	1265.5228	-236.93413	135.02983	1337.8534	-54.85466	180.46129	1288.5417	55.738377	146.04018	1227.6447	224.54886	127.44023	1360.0286	209.12424	113.39095	1428.2306	177.41483	53.008255	1434.0146	235.79486	95.010063	1521.3206	203.34291	-91.262154	1338.7919	-135.3644	-191.95406	1196.4232	-22.663473	-224.70277	1091.8624	30.813204	-207.34082	1184.4822	14.302103	-141.53065	1297.356	24.491055	-92.857552	1275.0511	85.725731	-96.314346	1378.3716	62.918922	112.25359	887.22772	18.602131	-149.41112	880.69183	-33.67411	61.502251	950.49542	-211.26118	-26.615196	949.75793	-231.21512
2075	20.74	78.872559	1563.5388	-0.30898991	-59.296566	1554.4907	-30.26807	89.914284	1556.7656	-162.07907	-34.804707	1524.2843	-193.31424	60.670574	1337.9	-184.61176	54.579376	1133.1868	-224.93835	-13.501848	1263.0604	1.0936821	-20.470272	1070.3274	36.490215	-23.59338	1265.6901	-237.0965	134.95238	1338.0283	-54.811821	180.17166	1288.058	55.815289	146.00902	1225.6689	224.09004	127.2076	1358.007	209.22673	113.02917	1426.4189	177.89236	52.65889	1431.705	236.38173	94.582336	1519.3167	204.73431	-91.260674	1338.8402	-135.63235	-192.76614	1195.5875	-24.002195	-226.43314	1090.5994	28.243269	-208.49892	1183.3535	12.999992	-141.90186	1295.7725	25.318556	-93.947197	1272.3971	86.711914	-96.609467	1375.9606	65.411949	112.15423	887.20734	18.611092	-149.3671	880.73798	-34.186085	62.268021	950.43921	-211.37015	-25.825453	949.75757	-231.58365
2076	20.75	78.605461	1563.708	-0.46318325	-59.499897	1554.741	-30.484875	89.842239	1556.5229	-162.22949	-34.889576	1524.1536	-193.62369	60.683479	1338.1132	-184.55179	55.036751	1133.2993	-225.04498	-13.72128	1262.9349	0.90442133	-20.554979	1070.1881	36.005943	-23.294664	1265.8152	-237.26775	134.82556	1338.1982	-54.693901	179.92236	1287.6079	55.933338	145.9881	1223.5991	223.66818	126.93857	1355.9	209.40794	112.64726	1424.4424	178.43619	52.263897	1429.3228	237.00076	94.165421	1517.094	206.05824	-91.293495	1338.9309	-136.03291	-193.8378	1194.5023	-25.739866	-228.41115	1088.984	24.794891	-209.64482	1181.9467	11.516218	-142.34746	1293.8358	26.056822	-95.342583	1269.2031	87.696228	-97.086319	1373.0192	67.954964	111.95621	887.20215	18.747154	-149.44838	880.79639	-35.232338	63.107929	950.35608	-211.39113	-24.915813	949.63336	-231.85593
2077	20.76	78.373085	1563.8141	-0.65936935	-59.707493	1555.0208	-30.848763	89.749733	1556.1588	-162.40079	-35.003784	1523.9028	-193.71095	60.776184	1338.3248	-184.52296	55.592201	1133.4235	-225.13667	-14.039927	1262.8434	0.59856588	-20.791899	1070.0377	35.553837	-22.857592	1265.9316	-237.54443	134.69516	1338.3749	-54.547413	179.70743	1287.1011	56.164444	146.00792	1221.4639	223.34961	126.66662	1353.7572	209.63635	112.28098	1422.4176	178.94022	51.739674	1426.8187	237.48178	93.727966	1514.7898	207.5918	-91.329887	1338.9612	-136.4021	-195.13174	1193.2444	-28.063581	-230.76936	1087.2133	20.676971	-211.10924	1180.3296	9.4058037	-143.02539	1291.4985	26.650171	-97.138359	1265.4077	88.430252	-97.711769	1369.5569	70.703499	111.69775	887.15802	18.936386	-149.4935	880.83215	-35.886738	64.005493	950.24097	-211.32936	-23.86997	949.54242	-232.17935
